<svg width="21" height="20" viewBox="0 0 21 20" fill="none" xmlns="http://www.w3.org/2000/svg">
<path d="M17.8496 3H5.01037C3.62598 3 2.5 4.12598 2.5 5.51037V16.7615C2.5 17.2943 3.10262 17.5947 3.52799 17.2909L7.10364 14.7397C7.40367 14.526 7.75659 14.4128 8.12513 14.4128H15.9896C17.374 14.4128 18.5 13.2869 18.5 11.9025V3.65035C18.5 3.29136 18.2086 3 17.8496 3ZM11.3829 10.8784H7.17648C6.81748 10.8784 6.52612 10.5875 6.52612 10.228C6.52612 9.86904 6.81748 9.57768 7.17648 9.57768H11.3829C11.7419 9.57768 12.0333 9.86904 12.0333 10.228C12.0333 10.5875 11.7419 10.8784 11.3829 10.8784ZM14.6907 7.8434H7.17648C6.81748 7.8434 6.52612 7.55248 6.52612 7.19305C6.52612 6.83405 6.81748 6.54269 7.17648 6.54269H14.6907C15.0497 6.54269 15.341 6.83405 15.341 7.19305C15.341 7.55248 15.0497 7.8434 14.6907 7.8434Z" fill="#3A3A3B"/>
</svg>
