<svg width="26" height="26" viewBox="0 0 26 26" fill="none" xmlns="http://www.w3.org/2000/svg">
<g clip-path="url(#clip0_1_838)">
<path d="M15.3353 12.9386L13.4002 14.9365L13.4002 4.36771C13.4002 4.11101 13.3014 3.86481 13.1256 3.68329C12.9498 3.50178 12.7113 3.3998 12.4627 3.3998C12.214 3.3998 11.9756 3.50178 11.7998 3.68329C11.6239 3.86481 11.5252 4.11101 11.5252 4.36771L11.5252 14.9365L9.59006 12.9386C9.50309 12.8483 9.39972 12.7767 9.28587 12.7277C9.17203 12.6787 9.04995 12.6534 8.92662 12.6533C8.80329 12.6531 8.68114 12.678 8.56717 12.7267C8.45319 12.7753 8.34964 12.8467 8.26243 12.9367C8.17523 13.0268 8.10608 13.1337 8.05896 13.2514C8.01185 13.369 7.98768 13.4952 7.98784 13.6225C7.98801 13.7498 8.01251 13.8759 8.05994 13.9934C8.10737 14.1109 8.17679 14.2177 8.26424 14.3074L11.7997 17.9577C11.8868 18.0476 11.9901 18.1189 12.1039 18.1675C12.2176 18.2162 12.3396 18.2412 12.4627 18.2412C12.5858 18.2412 12.7077 18.2162 12.8214 18.1675C12.9352 18.1189 13.0385 18.0476 13.1256 17.9577L16.6611 14.3074C16.7486 14.2177 16.818 14.1109 16.8654 13.9934C16.9128 13.8759 16.9373 13.7498 16.9375 13.6225C16.9377 13.4952 16.9135 13.369 16.8664 13.2514C16.8193 13.1337 16.7501 13.0268 16.6629 12.9367C16.5757 12.8467 16.4721 12.7753 16.3582 12.7267C16.2442 12.678 16.1221 12.6531 15.9987 12.6533C15.8754 12.6534 15.7533 12.6787 15.6395 12.7277C15.5256 12.7767 15.4223 12.8483 15.3353 12.9386Z" fill="#3A3A3B"/>
<path d="M20.5879 11.7886C20.3393 11.7886 20.1008 11.8906 19.925 12.0721C19.7492 12.2536 19.6504 12.4998 19.6504 12.7565V20.1772H5.27539V12.7565C5.27539 12.4998 5.17662 12.2536 5.0008 12.0721C4.82499 11.8906 4.58653 11.7886 4.33789 11.7886C4.08925 11.7886 3.85079 11.8906 3.67498 12.0721C3.49916 12.2536 3.40039 12.4998 3.40039 12.7565V20.4998C3.40039 20.9277 3.56501 21.338 3.85804 21.6405C4.15106 21.943 4.54849 22.113 4.96289 22.113H19.9629C20.3773 22.113 20.7747 21.943 21.0677 21.6405C21.3608 21.338 21.5254 20.9277 21.5254 20.4998V12.7565C21.5254 12.4998 21.4266 12.2536 21.2508 12.0721C21.075 11.8906 20.8365 11.7886 20.5879 11.7886Z" fill="#3A3A3B"/>
</g>
<defs>
<clipPath id="clip0_1_838">
<rect width="24" height="24" fill="white" transform="translate(1 1)"/>
</clipPath>
</defs>
</svg>
