<svg width="235" height="193" viewBox="0 0 235 193" fill="none" xmlns="http://www.w3.org/2000/svg">
<g clip-path="url(#clip0_1_793)">
<path d="M128.483 193H0L15.9736 67.3745L124.316 0L218.769 113.695L219.464 118.607L124.316 11.9309V24.5636L219.464 123.52L220.158 128.433L125.011 36.4945V50.5309L220.853 133.345L221.547 138.258L125.705 62.4618V75.0945L222.936 143.171L223.631 148.084L126.4 87.7273V99.6582L224.325 152.996L225.02 157.909L127.094 112.291V124.924L226.409 163.524L227.103 168.436L127.789 137.556V151.593L227.798 174.051L228.492 178.964L127.789 163.524V176.156L229.187 183.175L229.881 190.193L128.483 193ZM729.23 104.571V133.345C715.34 140.364 707.006 147.382 697.283 147.382C686.865 147.382 677.142 143.171 677.142 131.942C677.142 113.695 694.505 103.869 729.23 104.571ZM652.835 58.9527C666.725 49.1273 688.254 41.4073 703.533 41.4073C725.063 41.4073 729.925 48.4255 729.925 68.7782C669.503 70.1818 625.749 86.3236 625.749 136.153C625.749 162.822 641.722 188.087 685.476 188.087C709.784 188.087 727.147 181.069 743.815 167.735C754.927 186.684 769.511 188.087 778.54 188.087C785.485 188.087 792.43 186.684 792.43 184.578V145.276C778.54 146.68 778.54 134.749 778.54 117.905V63.8655C778.54 43.5127 775.762 0 708.395 0C696.588 0 665.336 1.40364 631.999 25.2655L652.835 58.9527ZM276.413 154.4C298.637 177.56 318.778 188.087 349.336 188.087C393.784 188.087 444.483 164.225 444.483 91.2364C444.483 15.44 387.534 0 350.725 0C335.446 0 307.666 5.61455 281.969 27.3709L309.055 57.5491C320.167 44.9164 334.057 39.3018 349.336 39.3018C381.283 39.3018 384.061 65.2691 384.756 77.9018L326.417 74.3927V115.098L384.756 111.589C384.061 122.116 379.894 148.785 348.641 148.785C327.112 148.785 312.527 136.855 303.499 125.625L276.413 154.4ZM500.043 45.6182V193H548.659V45.6182H597.274V3.50909H458.373V45.6182H500.043ZM926.469 193H972.307V106.676C993.142 105.273 997.309 115.098 1009.12 141.065C1019.53 163.524 1029.95 188.087 1060.51 188.087C1065.37 188.087 1069.54 187.385 1076.48 184.578V145.276C1062.59 143.873 1063.98 138.258 1053.56 120.713C1038.98 94.7455 1030.65 88.4291 1020.92 87.0255C1036.2 82.8145 1043.15 72.9891 1048.01 65.9709C1055.65 54.7418 1061.2 44.2145 1073.01 44.2145C1074.4 44.2145 1069.54 44.2145 1076.48 44.9164V3.50909C1069.54 0.701818 1068.15 0 1059.81 0C1032.73 0 1017.45 18.2473 1001.48 43.5127C993.142 56.8473 985.502 68.0764 971.612 66.6727V3.50909H922.997V67.3745C909.107 68.7782 904.245 56.8473 895.911 44.2145C879.938 18.2473 865.353 0.701818 838.267 0.701818C829.933 0.701818 825.766 2.10545 818.821 4.21091V44.9164C818.821 44.2145 823.683 44.2145 825.072 44.2145C836.878 44.2145 844.518 54.7418 852.157 65.9709C857.019 72.9891 863.27 82.8145 878.549 87.0255C868.826 88.4291 855.63 95.4473 841.045 120.713C830.628 138.258 832.711 144.575 811.876 145.276V184.578C818.821 187.385 828.544 188.087 833.406 188.087C863.964 188.087 877.16 163.524 888.272 141.065C900.773 115.098 895.217 105.273 922.997 106.676V193H926.469ZM1166.77 97.5527V3.50909H1118.15V193H1166.77V158.611L1229.27 92.64V193H1277.89V3.50909H1229.27V32.2836L1166.77 97.5527Z" fill="#848484"/>
</g>
<defs>
<clipPath id="clip0_1_793">
<rect width="235" height="193" fill="white"/>
</clipPath>
</defs>
</svg>
