<svg width="129" height="23" viewBox="0 0 129 23" fill="none" xmlns="http://www.w3.org/2000/svg">
<path fill-rule="evenodd" clip-rule="evenodd" d="M117.139 19.9228C115.513 19.9228 114.048 19.4772 112.75 18.5858C111.452 17.6882 110.439 16.4854 109.716 14.9588C108.992 13.4387 108.628 11.7778 108.628 9.96446C108.628 8.16335 108.999 6.4964 109.728 4.97C110.457 3.4436 111.465 2.23464 112.756 1.34323C114.048 0.445756 115.501 0 117.108 0C118.387 0 119.506 0.201456 120.464 0.598521C121.422 0.995273 122.182 1.58147 122.739 2.34446V0.622868H129V19.2817H122.72V17.6026C122.164 18.3536 121.41 18.9276 120.458 19.3244C119.5 19.7274 118.4 19.9228 117.139 19.9228V19.9228ZM91.2044 11.4235L91.8205 5.53739L93.2786 5.79924L92.4059 0.622659H69.2098V11.8205C69.2098 12.4922 69.0864 12.9867 68.8393 13.3042C68.592 13.6279 68.2395 13.7926 67.7821 13.7926H66.818V19.2817H68.1965C69.4879 19.2817 70.712 19.0372 71.8739 18.555C73.0298 18.0727 73.9817 17.2973 74.7172 16.2286C75.4527 15.1666 75.8172 13.8111 75.8172 12.1623V6.08105H81.1826V19.2817H82.7996L84.6139 7.0896L88.4563 7.85238L89.8576 5.13301L88.3979 4.85997L92.4059 0.622659H94.4537V6.45367H95.3438L98.8918 0.622659H106.661L100.628 9.23177L107.242 19.2817H99.3612L95.7765 12.95H94.4537V19.2817C90.569 19.2817 86.6843 19.2817 82.7996 19.2817L87.4083 10.6789L91.2044 11.4235V11.4235ZM22.8888 13.8782C23.5998 12.9624 24.1869 11.8022 24.6381 10.4101C25.0893 9.01213 25.3982 7.30851 25.5714 5.29351L25.9484 0.622868H41.7592V13.8782H43.4775V23H36.9072V19.2817H28.0315V23H21.4796V13.8782H22.8888V13.8782ZM35.1826 6.04479H31.8327L31.6905 7.52846C31.5544 8.91432 31.3073 10.0989 30.9488 11.088C30.5841 12.0772 30.1145 13.0112 29.5334 13.8782H35.1826V6.04479V6.04479ZM9.98216 19.9105C8.0351 19.9105 6.31082 19.4587 4.79016 18.5673C3.27594 17.6697 2.10149 16.4669 1.26088 14.9468C0.420469 13.4263 0 11.7657 0 9.96446C0 8.16335 0.420469 6.50257 1.26088 4.98233C2.10149 3.46188 3.27594 2.24697 4.79016 1.34939C6.31082 0.451919 8.0351 0 9.98216 0C11.7562 0 13.3384 0.347953 14.7354 1.0563C16.1259 1.75837 17.2695 2.71707 18.1657 3.93199C19.0558 5.15317 19.6553 6.52702 19.9582 8.06565H13.2581C12.7387 6.71625 11.6573 6.04479 10.0192 6.04479C9.40112 6.04479 8.82632 6.19108 8.2949 6.49045C7.76326 6.7895 7.34279 7.22909 7.02778 7.81518C6.71256 8.40148 6.55792 9.10962 6.55792 9.94617C6.55792 10.7887 6.71881 11.5092 7.04005 12.1016C7.35527 12.6877 7.78176 13.1395 8.30716 13.4387C8.83256 13.7439 9.40112 13.8964 10.0192 13.8964C10.8042 13.8964 11.4716 13.7133 12.0343 13.353C12.5966 12.9867 13.0046 12.3639 13.2581 11.4849H19.9582C19.6801 13.1027 19.0991 14.5559 18.2089 15.8319C17.3251 17.1081 16.1754 18.1033 14.76 18.8237C13.3509 19.5443 11.7562 19.9105 9.98216 19.9105ZM65.1359 9.96446C65.1359 10.4531 65.0928 10.9779 65.0061 11.5337H51.8285C52.1868 13.4325 53.3058 14.3789 55.1785 14.3789C56.5631 14.3789 57.4406 13.9149 57.7992 12.9867H64.8085C64.5549 14.1407 64.011 15.2458 63.1704 16.302C62.3297 17.3585 61.2357 18.2255 59.8822 18.897C58.5347 19.5687 57.008 19.9105 55.3022 19.9105C53.3365 19.9105 51.5812 19.4587 50.0421 18.5673C48.5032 17.6697 47.3102 16.4669 46.4574 14.9468C45.6043 13.4263 45.1778 11.7657 45.1778 9.96446C45.1778 8.15102 45.6043 6.48428 46.4574 4.96384C47.3102 3.4436 48.5032 2.23464 50.0361 1.34323C51.5688 0.445756 53.3242 0 55.3022 0C57.28 0 59.0168 0.445759 60.5065 1.3309C62.0022 2.22252 63.1456 3.41925 63.9431 4.93343C64.7402 6.4475 65.1359 8.12667 65.1359 9.96446V9.96446ZM58.3617 7.47339C58.2813 6.78333 57.9537 6.22786 57.3852 5.80039C56.8163 5.37919 56.1488 5.16551 55.3763 5.16551C54.6284 5.16551 53.9608 5.34857 53.386 5.70269C52.8052 6.06297 52.3662 6.65533 52.0635 7.47339H58.3617ZM118.808 13.9149C119.494 13.9149 120.118 13.7439 120.674 13.3959C121.231 13.0478 121.663 12.5717 121.978 11.967C122.287 11.3565 122.448 10.685 122.448 9.94617C122.448 9.23177 122.287 8.57232 121.966 7.96795C121.645 7.36357 121.212 6.88731 120.656 6.53935C120.099 6.18513 119.488 6.00801 118.826 6.00801C118.152 6.00801 117.534 6.16078 116.991 6.466C116.44 6.77132 116.001 7.21697 115.674 7.80923C115.346 8.39531 115.186 9.10962 115.186 9.94617C115.186 10.8255 115.352 11.5641 115.686 12.1625C116.014 12.7609 116.459 13.2005 117.003 13.4875C117.553 13.7745 118.159 13.9149 118.808 13.9149V13.9149Z" fill="#9FF612"/>
</svg>
