<svg width="61" height="61" viewBox="0 0 61 61" fill="none" xmlns="http://www.w3.org/2000/svg">
<path d="M25.7977 3.41641C28.6016 1.37926 32.3984 1.37926 35.2023 3.41641L54.8049 17.6586C57.6088 19.6957 58.7821 23.3067 57.7111 26.6028L50.2236 49.6471C49.1526 52.9433 46.0809 55.175 42.6151 55.175H18.3849C14.9191 55.175 11.8474 52.9433 10.7764 49.6472L3.28889 26.6028C2.2179 23.3067 3.39116 19.6957 6.19506 17.6586L25.7977 3.41641Z" fill="#F86247"/>
<path d="M30.1328 35.2763C32.5682 35.2763 34.5424 33.302 34.5424 30.8667C34.5424 28.4313 32.5682 26.457 30.1328 26.457C27.6974 26.457 25.7231 28.4313 25.7231 30.8667C25.7231 33.302 27.6974 35.2763 30.1328 35.2763Z" fill="white"/>
<path d="M46.3134 29.669C44.4902 26.8496 42.1249 24.4546 39.4736 22.7424C36.5405 20.8463 33.3022 19.8438 30.1093 19.8438C27.1797 19.8438 24.2989 20.6809 21.547 22.3318C18.7407 24.015 16.1983 26.4741 13.99 29.64C13.7407 29.9978 13.6034 30.4217 13.5956 30.8577C13.5877 31.2937 13.7097 31.7222 13.9459 32.0888C15.7656 34.9364 18.1075 37.3349 20.7175 39.0236C23.6561 40.9273 26.8186 41.8919 30.1093 41.8919C33.3277 41.8919 36.5729 40.8977 39.4936 39.0174C42.1435 37.3107 44.504 34.9068 46.3202 32.064C46.5484 31.7059 46.669 31.29 46.6677 30.8655C46.6665 30.4409 46.5435 30.0257 46.3134 29.669ZM30.1327 37.4823C28.8245 37.4823 27.5457 37.0944 26.4579 36.3676C25.3702 35.6408 24.5224 34.6077 24.0218 33.3991C23.5211 32.1905 23.3902 30.8605 23.6454 29.5774C23.9006 28.2944 24.5306 27.1158 25.4556 26.1907C26.3807 25.2657 27.5592 24.6357 28.8423 24.3805C30.1254 24.1253 31.4553 24.2563 32.664 24.7569C33.8726 25.2575 34.9057 26.1053 35.6325 27.193C36.3593 28.2808 36.7472 29.5596 36.7472 30.8678C36.7452 32.6215 36.0477 34.3027 34.8077 35.5428C33.5676 36.7828 31.8864 37.4803 30.1327 37.4823Z" fill="white"/>
</svg>
