<svg width="24" height="24" viewBox="0 0 24 24" fill="none" xmlns="http://www.w3.org/2000/svg">
<path fill-rule="evenodd" clip-rule="evenodd" d="M13.1479 16.945H10.8522V19.2233H13.1479V16.945ZM9.13044 10.9385H6.83485V13.1651H9.13044V10.9385ZM17.2174 4.88026H14.9218V7.1068H17.2174V4.88026ZM3.1826 12.7508C2.81738 12.7508 2.45217 12.3884 2.45217 12.0259C2.45217 11.6117 2.81738 11.301 3.1826 11.301H5.94782V10.4725C5.94782 10.2654 6.15653 10.0583 6.36522 10.0583H9.54784C9.75654 10.0583 9.96524 10.2654 9.96524 10.4725V11.301H20.8174C21.2348 11.301 21.5479 11.6117 21.5479 12.0259C21.5479 12.3884 21.2348 12.7508 20.8174 12.7508H9.96524V13.5793C9.96524 13.7864 9.75654 13.9935 9.54784 13.9935H9.49569H6.36522C6.15653 13.9935 5.94782 13.7864 5.94782 13.5793V12.7508H3.1826ZM20.8174 5.2945C21.2348 5.2945 21.5479 5.65696 21.5479 6.01942C21.5479 6.43366 21.2348 6.74434 20.8174 6.74434H18.0522V7.57281C18.0522 7.77993 17.8435 7.98706 17.6348 7.98706H14.4522C14.1913 7.98706 13.9827 7.77993 13.9827 7.57281V6.74434H3.13046C2.76524 6.74434 2.40002 6.43366 2.40002 6.01942C2.40002 5.65696 2.76524 5.2945 3.13046 5.2945H13.9827V4.41424C13.9827 4.20712 14.1913 4 14.4522 4H17.5827H17.6348C17.8435 4 18.0522 4.20712 18.0522 4.41424V5.24272H20.8174V5.2945ZM10.4348 16.0647H13.6174C13.8261 16.0647 14.087 16.2718 14.087 16.479V17.3074H20.8696C21.287 17.3074 21.6 17.6181 21.6 18.0324C21.6 18.3948 21.287 18.7573 20.8696 18.7573H14.087V19.5858C14.087 19.7929 13.8783 20 13.6174 20H10.4348C10.2261 20 10.0175 19.7929 10.0175 19.5858V19.534V18.7055H3.1826C2.81738 18.7055 2.45217 18.343 2.45217 17.9806C2.45217 17.5663 2.81738 17.2557 3.1826 17.2557H10.0175V16.479C10.0175 16.2718 10.1739 16.0647 10.4348 16.0647Z" fill="#2D2C46"/>
</svg>
