<svg width="126" height="36" viewBox="0 0 126 36" fill="none" xmlns="http://www.w3.org/2000/svg">
<path d="M26.7626 35.7033C32.0379 35.7033 36.3143 31.4854 36.3143 26.2823C36.3143 21.0792 32.0379 16.8613 26.7626 16.8613C21.4874 16.8613 17.2109 21.0792 17.2109 26.2823C17.2109 31.4854 21.4874 35.7033 26.7626 35.7033Z" fill="#97CF26"/>
<path d="M8.80549 30.669C11.261 30.669 13.2516 28.7056 13.2516 26.2837C13.2516 23.8618 11.261 21.8984 8.80549 21.8984C6.34997 21.8984 4.35938 23.8618 4.35938 26.2837C4.35938 28.7056 6.34997 30.669 8.80549 30.669Z" fill="#A169F7"/>
<path d="M26.7613 14.6374C30.1567 14.6374 32.9092 11.9226 32.9092 8.57361C32.9092 5.22464 30.1567 2.50977 26.7613 2.50977C23.3658 2.50977 20.6133 5.22464 20.6133 8.57361C20.6133 11.9226 23.3658 14.6374 26.7613 14.6374Z" fill="#FF6163"/>
<path d="M8.80688 16.3169C13.1422 16.3169 16.6567 12.8505 16.6567 8.57444C16.6567 4.29843 13.1422 0.832031 8.80688 0.832031C4.47153 0.832031 0.957031 4.29843 0.957031 8.57444C0.957031 12.8505 4.47153 16.3169 8.80688 16.3169Z" fill="#00AAFF"/>
<path d="M61.1461 30.6166H66.1045L56.9216 5.95508H53.3252L44.1406 30.6175H49.0994L50.8532 25.9099H59.3923L61.1461 30.6175L52.2343 22.1986L55.1232 14.4436L58.0104 22.1986H52.2343L61.1461 30.6166ZM78.3962 13.7797L73.833 26.0308L69.272 13.7797H64.6132L70.8854 30.6166H76.7815L83.0529 13.7797H78.3953H78.3962ZM85.0028 13.7797H89.6617V30.6166H85.0028V13.7797Z" fill="black"/>
<path d="M87.3482 11.8681C89.0048 11.8681 90.3477 10.5436 90.3477 8.90965C90.3477 7.27573 89.0048 5.95117 87.3482 5.95117C85.6916 5.95117 84.3486 7.27573 84.3486 8.90965C84.3486 10.5436 85.6916 11.8681 87.3482 11.8681Z" fill="black"/>
<path d="M106.113 17.4918V13.7813H100.532V9.13672H95.8759V13.7813H92.1914V17.4918H95.8759V24.7357C95.8759 28.4722 97.7701 30.9661 102.607 30.9661C104.475 30.9661 106.113 30.2897 106.113 30.2897L105.547 26.6543C105.547 26.6543 104.63 26.9245 103.502 26.9245C102.121 26.9245 100.532 26.337 100.532 24.4528V17.4914H106.113V17.4918ZM116.796 26.7697C114.199 26.7697 112.094 24.7386 112.094 22.2333C112.094 19.7302 114.199 17.6987 116.795 17.6987C119.394 17.6987 121.497 19.7306 121.497 22.2338C121.497 24.739 119.394 26.7701 116.796 26.7701V26.7697ZM116.796 13.3516C111.747 13.3516 107.652 17.3025 107.652 22.1725C107.652 27.0446 111.747 30.9934 116.796 30.9934C121.843 30.9934 125.938 27.0446 125.938 22.1725C125.938 17.3025 121.843 13.3516 116.795 13.3516" fill="black"/>
</svg>
