<svg width="261" height="48" viewBox="0 0 261 48" fill="none" xmlns="http://www.w3.org/2000/svg">
<path d="M27 44H7.46C4.992 44 3 41.97 3 39.4599V15.3937C3 13.5656 3.924 11.8776 5.472 10.9336L21.85 0.64748C22.5279 0.224338 23.3109 0 24.11 0C24.9091 0 25.6921 0.224338 26.37 0.64748L42.488 11.1936C44.016 12.1376 44.98 14.0276 44.98 15.8537L45 23.9998L27 44ZM13 33.9999H28L35 26.7438V17.9997L24 10.9336L13 17.9997V33.9999Z" fill="url(#paint0_linear_1_5109)"/>
<path d="M27 44V29C27 26.48 29.5 24 32 24H45L27 44Z" fill="#FBBC33"/>
<path d="M54 31.412H56.2981C57.1871 30.356 58.3059 27.892 58.6768 20.164L58.7192 16H71.5724V31.412H74.4914V38H70.9716V35.12H57.5399V38H54.0202V31.412H54ZM60.4165 31.412H67.8269V19.4L62.384 19.46L62.2369 22.984C61.8236 28.328 61.1826 30.484 60.4165 31.414V31.412ZM83.7623 20.248C88.3989 20.248 91.3803 23.396 91.3803 27.602C91.3803 31.806 88.3989 34.934 83.7623 34.934C79.1258 34.934 76.1464 31.786 76.1464 27.602C76.1464 23.396 79.1258 20.248 83.7623 20.248ZM83.7623 31.6C85.9778 31.6 87.5925 30.004 87.5925 27.58C87.5925 25.22 85.9355 23.602 83.7623 23.602C81.6517 23.602 79.9745 25.156 79.9745 27.582C79.9745 29.922 81.5892 31.6 83.7644 31.6H83.7623ZM94.1965 20.58H97.4219L102.183 25.654L106.697 20.578H109.842V34.582H106.262V26.026L102.121 30.48H102.02L97.7545 26.026V34.582H94.1763V20.58H94.1965ZM167.09 20.58H170.673V34.582H167.09V20.58ZM174.19 27.25L181 34.602H176.323L169.243 27.54L175.93 20.6H180.442L174.192 27.25H174.19ZM141.261 24.162H137.659L137.598 25.674C137.431 33.65 135.01 35.058 131.139 34.666V31.206C133.21 31.35 134.058 30.336 134.141 24.97L134.201 20.578H144.821V34.582H141.241V24.162H141.261ZM149.147 34.582V20.58H152.727V29.446L159.267 20.58H162.849V34.584H159.267V25.718L152.727 34.584H149.147V34.582ZM113.877 16.394H117.728V23.458L124.497 16.394H129.134L121.04 24.784L129.627 34.582H124.745L117.77 26.794V34.582H113.92V16.394H113.879H113.877Z" fill="#004C60"/>
<defs>
<linearGradient id="paint0_linear_1_5109" x1="3.936" y1="8.64158" x2="36.6063" y2="38.0115" gradientUnits="userSpaceOnUse">
<stop stop-color="#6BBD3F"/>
<stop offset="0.62" stop-color="#209A73"/>
<stop offset="1" stop-color="#0276A2"/>
</linearGradient>
</defs>
</svg>
