<svg width="28" height="28" viewBox="0 0 28 28" fill="none" xmlns="http://www.w3.org/2000/svg">
<path d="M20.9925 21.48C21.3793 24.84 6.61906 24.84 7.00754 21.48C7.27699 19.1495 9.41538 17.8966 10.7004 17.3476C11.3299 17.0787 12.0157 17 12.7002 17H15.3003C15.9845 17 16.67 17.0787 17.2993 17.3473C18.5847 17.8962 20.7242 19.1491 20.9925 21.48Z" fill="#124BF6"/>
<path d="M17.5 7.49965C16 5.49965 11.9983 5.49821 10.4983 7.49895C8.99834 9.49968 10.5002 13.5001 11.5035 14.501C12.5067 15.5019 15.4941 15.5019 16.4971 14.501C17.5 13.5001 19 9.49965 17.5 7.49965Z" fill="#124BF6"/>
<rect x="1" y="1" width="26" height="26" rx="13" stroke="#124BF6" stroke-width="2"/>
</svg>
