<svg width="60" height="60" viewBox="0 0 60 60" fill="none" xmlns="http://www.w3.org/2000/svg">
<circle cx="30" cy="30" r="30" fill="#124BF6"/>
<path d="M12.8438 23.0938V23.1466C12.8419 23.4768 12.7227 23.7955 12.5074 24.0459V24.0499C12.075 24.5608 11.5625 25.4753 11.5625 26.9375C11.5625 28.2628 11.9869 29.1981 12.4978 29.8131C12.722 30.0859 12.8443 30.4282 12.8438 30.7812C12.8438 31.4609 13.1137 32.1126 13.5943 32.5932C14.0749 33.0738 14.7266 33.3438 15.4062 33.3438H16.0469C16.2168 33.3438 16.3797 33.2763 16.4999 33.1561C16.62 33.036 16.6875 32.873 16.6875 32.7031V21.1719C16.6875 21.002 16.62 20.839 16.4999 20.7189C16.3797 20.5987 16.2168 20.5312 16.0469 20.5312H15.4062C14.7266 20.5312 14.0749 20.8012 13.5943 21.2818C13.1137 21.7624 12.8438 22.4141 12.8438 23.0938Z" fill="white"/>
<path d="M45.2102 23.9388L45.1357 23.9252C45.0625 23.9112 44.9964 23.8721 44.9489 23.8147C44.9014 23.7572 44.8754 23.685 44.8754 23.6105V13.9651C44.8754 12.9529 44.2036 12.0432 43.2026 11.6972C42.2481 11.3681 41.2535 11.6364 40.6657 12.3803C39.4153 13.8735 38.0408 15.2582 36.5569 16.5195C34.6647 18.1211 32.8541 19.2622 31.1917 19.9077C31.0705 19.9539 30.9661 20.0358 30.8925 20.1426C30.8189 20.2494 30.7794 20.3761 30.7793 20.5058V32.9436C30.7795 33.194 30.8531 33.4389 30.991 33.648C31.1289 33.8571 31.3251 34.0211 31.5553 34.1199C33.104 34.7838 34.7776 35.868 36.5201 37.3455C38.0152 38.6183 39.3996 40.0156 40.6585 41.5223C40.8602 41.7754 41.1177 41.9784 41.4108 42.1155C41.7039 42.2526 42.0247 42.3201 42.3482 42.3127C42.6325 42.3114 42.9148 42.2644 43.1842 42.1734C44.2116 41.8322 44.8754 40.9554 44.8754 39.9424V30.2634C44.8755 30.1878 44.9023 30.1146 44.9511 30.0569C44.9999 29.9991 45.0676 29.9605 45.1421 29.9478L45.2102 29.9366C45.9805 29.7276 47.4379 28.8332 47.4379 26.9377C47.4379 25.0423 45.9805 24.1478 45.2102 23.9388Z" fill="white"/>
<path d="M28.2188 34.625V21.1719C28.2188 21.002 28.1513 20.839 28.0311 20.7189C27.911 20.5987 27.748 20.5312 27.5781 20.5312H19.8906C19.7207 20.5312 19.5578 20.5987 19.4376 20.7189C19.3175 20.839 19.25 21.002 19.25 21.1719V45.5156C19.25 46.0253 19.4525 46.5142 19.8129 46.8746C20.1733 47.235 20.6622 47.4375 21.1719 47.4375H25.372C25.7712 47.4408 26.1659 47.3527 26.5258 47.1799C26.8858 47.0071 27.2014 46.7542 27.4484 46.4405C27.7017 46.1158 27.8721 45.7343 27.9448 45.329C28.0174 44.9237 27.9903 44.5067 27.8656 44.1143C27.7359 43.6995 27.5749 43.2334 27.4036 42.7377C26.7701 40.9039 25.9349 39.7692 25.7123 37.1867C26.382 37.172 27.0194 36.8957 27.4879 36.4169C27.9563 35.9381 28.2187 35.2949 28.2188 34.625Z" fill="white"/>
</svg>
