<svg width="192" height="35" viewBox="0 0 192 35" fill="none" xmlns="http://www.w3.org/2000/svg">
<g clip-path="url(#clip0_1_5090)">
<path d="M18.0842 34.9094C28.0718 34.9094 36.1684 27.0947 36.1684 17.4547C36.1684 7.81472 28.0718 0 18.0842 0C8.09657 0 0 7.81472 0 17.4547C0 27.0947 8.09657 34.9094 18.0842 34.9094Z" fill="#FF3333"/>
<path d="M18.5923 6.56641C17.682 6.56641 16.8477 6.71284 16.0132 7.0057C15.1788 7.29857 14.4582 7.73787 13.8513 8.32359C13.2445 8.90932 12.7514 9.64147 12.3721 10.5201C12.0307 11.3986 11.8412 12.4236 11.8412 13.5585C11.8412 15.2059 12.1445 16.5237 12.7893 17.4755C13.3582 18.3542 14.0788 19.0131 14.9512 19.5256L10.7412 28.3847H14.3065L18.0235 20.2944H20.1095V28.3847H23.2197V6.56641H18.5923ZM18.4786 9.16557H20.1095V17.6586H18.4786C18.0235 17.6586 17.5684 17.5854 17.1511 17.4389C16.7719 17.3291 16.3925 17.1094 16.127 16.78C15.8235 16.4505 15.596 16.0479 15.4063 15.5354C15.2168 15.0228 15.1408 14.3273 15.1408 13.5218C15.1408 12.6799 15.2547 11.9843 15.4444 11.3986C15.634 10.8495 15.8995 10.4102 16.2028 10.0808C16.5064 9.7513 16.8477 9.53165 17.2648 9.38522C17.6442 9.23878 18.0614 9.16557 18.4786 9.16557Z" fill="white"/>
</g>
<g clip-path="url(#clip1_1_5090)">
<path d="M59.4079 28.387H60.9903V6.54688H59.4079V16.627H52.389V6.54688H50.8066V28.387H52.389V17.8815H59.4079V28.387ZM65.2061 20.9361H72.4172C72.9258 15.4706 71.1513 12.6887 68.3935 12.6887C65.7035 12.6887 63.7481 15.6451 63.7481 20.6852C63.7481 25.7252 65.2966 28.6925 68.6874 28.6925C71.2191 28.6925 72.4172 26.947 72.4172 26.947L71.9425 25.7907C71.9425 25.7907 70.8349 27.4379 68.71 27.4379C66.4042 27.4379 65.2626 25.147 65.2061 20.9361ZM68.3935 13.8778C70.0097 13.8778 71.2757 15.7106 71.027 19.8015H65.2288C65.3644 15.9506 66.7207 13.8778 68.3935 13.8778ZM77.3225 22.0379C77.7295 18.4597 77.8312 14.1506 77.8312 14.1506H81.8775V27.2307H75.8081C76.6218 26.3143 77.04 24.6016 77.3225 22.0379ZM83.6859 31.4089H84.8501V27.2307H83.4033V12.9942H76.4975C76.4975 12.9942 76.441 17.9142 76.0228 21.6997C75.7063 24.6016 75.1073 26.707 74.1239 27.2307H73.4571V31.4089H74.6325L74.8247 28.387H83.4938L83.6859 31.4089ZM90.6823 28.387C93.6887 28.387 95.678 26.9798 95.678 23.9579C95.678 22.0924 94.7625 20.8161 92.7054 20.227C94.2538 19.5615 94.9546 18.2742 94.9546 16.7142C94.9546 14.2706 93.4288 12.9942 90.6145 12.9942H87.2576V28.387H90.6823ZM90.5467 14.1178C92.389 14.1178 93.5305 14.8269 93.5305 16.7797C93.5305 18.9179 92.2872 19.8342 90.5467 19.8342H88.7155V14.1178H90.5467ZM90.6483 20.9033C92.9541 20.9033 94.186 21.8197 94.186 24.0452C94.186 26.4343 92.7394 27.2852 90.6823 27.2852H88.7155V20.9033H90.6483ZM105.647 28.387H107.071V12.9942H105.771L100.583 23.8052C100.267 24.4816 99.9504 25.147 99.7243 25.8561H99.6339C99.7017 25.1797 99.7583 24.5034 99.7583 23.6852V12.9942H98.368V28.387H99.6339L104.822 17.5433C105.172 16.867 105.455 16.2342 105.681 15.5579H105.771C105.715 16.2015 105.647 16.867 105.647 17.6633V28.387ZM115.706 20.4124V28.387H117.198V20.4124L122.137 28.387H123.754L118.69 20.107L123.369 12.9942H121.945L117.198 20.227V12.9942H115.706V20.227L110.959 12.9942H109.478L114.226 20.227L109.219 28.387H110.778L115.706 20.4124ZM133.18 28.387H134.604V12.9942H133.304L128.116 23.8052C127.8 24.4816 127.484 25.147 127.258 25.8561H127.167C127.235 25.1797 127.291 24.5034 127.291 23.6852V12.9942H125.901V28.387H127.167L132.355 17.5433C132.705 16.867 132.988 16.2342 133.214 15.5579H133.304C133.248 16.2015 133.18 16.867 133.18 17.6633V28.387ZM142.606 26.5543H143.85L146.506 17.5106C146.721 16.7797 146.856 16.0815 147.015 15.2197H147.139C147.071 16.0815 147.015 16.8997 147.015 17.9361V28.387H148.439V12.9942H146.721L143.872 22.3979C143.556 23.4997 143.432 24.1979 143.341 24.9943H143.217C143.115 24.1979 143.025 23.4997 142.708 22.3979L139.916 12.9942H138.176V28.387H139.442V17.9361C139.442 16.8451 139.351 16.0815 139.284 15.2524H139.419C139.6 16.016 139.702 16.6924 139.95 17.5106L142.606 26.5543ZM156.034 28.6925C158.781 28.6925 160.905 25.7034 160.905 20.5979C160.905 15.3178 158.781 12.6887 156.034 12.6887C153.276 12.6887 151.151 15.6451 151.151 20.7833C151.151 26.0307 153.276 28.6925 156.034 28.6925ZM156.034 27.5361C154.158 27.5361 152.643 25.4852 152.643 20.6852C152.643 16.016 154.158 13.8778 156.034 13.8778C157.899 13.8778 159.413 15.8633 159.413 20.6852C159.413 25.3325 157.899 27.5361 156.034 27.5361ZM168.083 27.4379C165.619 27.4379 164.511 24.9397 164.511 20.7179C164.511 16.3869 165.652 13.9106 168.083 13.9106C169.45 13.9106 170.457 14.7069 171.157 15.6451L171.564 14.1178C170.874 13.2997 169.733 12.6887 168.083 12.6887C164.827 12.6887 163.018 15.6451 163.018 20.7179C163.018 25.7252 164.861 28.6925 168.06 28.6925C170.558 28.6925 171.722 26.9798 171.722 26.9798L171.247 25.7907C171.247 25.7907 170.139 27.4379 168.083 27.4379ZM181.849 14.1833V12.9942H172.988V14.1833H176.695V28.387H178.187V14.1833H181.849ZM184.223 28.387H186.789C189.794 28.387 191.886 26.7725 191.886 23.4997C191.886 20.2924 189.92 18.6997 186.89 18.6997H185.715V12.9942H184.223V28.387ZM186.822 19.8342C189.105 19.8342 190.428 20.9361 190.428 23.5325C190.428 26.1834 188.913 27.2525 186.665 27.2525H185.715V19.8342H186.822Z" fill="black"/>
</g>
<defs>
<clipPath id="clip0_1_5090">
<rect width="36.6245" height="34.9094" fill="white"/>
</clipPath>
<clipPath id="clip1_1_5090">
<rect width="142.059" height="25.0911" fill="white" transform="translate(49.9414 6.54688)"/>
</clipPath>
</defs>
</svg>
