<svg width="37" height="35" viewBox="0 0 37 35" fill="none" xmlns="http://www.w3.org/2000/svg">
<g clip-path="url(#clip0_1_5091)">
<path d="M18.0842 34.9094C28.0718 34.9094 36.1684 27.0947 36.1684 17.4547C36.1684 7.81472 28.0718 0 18.0842 0C8.09657 0 0 7.81472 0 17.4547C0 27.0947 8.09657 34.9094 18.0842 34.9094Z" fill="#FF3333"/>
<path d="M18.5923 6.56641C17.682 6.56641 16.8477 6.71284 16.0132 7.0057C15.1788 7.29857 14.4582 7.73787 13.8513 8.32359C13.2445 8.90932 12.7514 9.64147 12.3721 10.5201C12.0307 11.3986 11.8412 12.4236 11.8412 13.5585C11.8412 15.2059 12.1445 16.5237 12.7893 17.4755C13.3582 18.3542 14.0788 19.0131 14.9512 19.5256L10.7412 28.3847H14.3065L18.0235 20.2944H20.1095V28.3847H23.2197V6.56641H18.5923ZM18.4786 9.16557H20.1095V17.6586H18.4786C18.0235 17.6586 17.5684 17.5854 17.1511 17.4389C16.7719 17.3291 16.3925 17.1094 16.127 16.78C15.8235 16.4505 15.596 16.0479 15.4063 15.5354C15.2168 15.0228 15.1408 14.3273 15.1408 13.5218C15.1408 12.6799 15.2547 11.9843 15.4444 11.3986C15.634 10.8495 15.8995 10.4102 16.2028 10.0808C16.5064 9.7513 16.8477 9.53165 17.2648 9.38522C17.6442 9.23878 18.0614 9.16557 18.4786 9.16557Z" fill="white"/>
</g>
<defs>
<clipPath id="clip0_1_5091">
<rect width="36.6245" height="34.9094" fill="white"/>
</clipPath>
</defs>
</svg>
