<svg width="62" height="56" viewBox="0 0 62 56" fill="none" xmlns="http://www.w3.org/2000/svg">
<path d="M26.6934 2.40131C28.5215 -0.800435 33.0917 -0.800435 34.9197 2.40131L60.9697 48.0261C62.7978 51.2279 60.5127 55.23 56.8566 55.23L4.75655 55.23C1.10041 55.23 -1.18468 51.2279 0.643394 48.0261L26.6934 2.40131Z" fill="#9FF612"/>
<g clip-path="url(#clip0_1_5398)">
<path d="M35.0717 49.96L30.2065 40.8203L27.2899 35.6622C26.7815 34.8015 26.5139 33.82 26.5151 32.8203L26.5151 24.0625H27.7128C28.5298 24.0625 28.7265 24.2426 29.3042 24.8203C29.8819 25.398 30.2065 26.1816 30.2065 26.9987V40.8203" fill="#3A3A3B"/>
<path d="M35.0717 49.96L30.2065 40.8203M30.2065 40.8203L27.2899 35.6622C26.7815 34.8015 26.5139 33.82 26.5151 32.8203L26.5151 24.0625H27.7128C28.5298 24.0625 28.7265 24.2426 29.3042 24.8203C29.8819 25.398 30.2065 26.1816 30.2065 26.9987V40.8203Z" stroke="#3A3A3B" stroke-width="5" stroke-linecap="round" stroke-linejoin="round"/>
<path d="M20.8105 35.4717V29.7671C20.8105 29.7671 25.3027 23.8203 26.3027 23.8203" stroke="#3A3A3B" stroke-width="4" stroke-linecap="round" stroke-linejoin="round"/>
<path d="M40.0391 35.6216C39.7578 35.6215 39.4829 35.5382 39.2489 35.3821L34.6179 32.4039C34.3888 32.2561 34.2004 32.0533 34.0699 31.8139C33.9394 31.5746 33.871 31.3063 33.8709 31.0337L33.8442 27.7033C33.8441 27.6252 33.865 27.5486 33.9048 27.4813C33.9445 27.4141 34.0016 27.3588 34.07 27.3213C34.1384 27.2837 34.2157 27.2652 34.2938 27.2678C34.3718 27.2704 34.4477 27.2939 34.5135 27.3359L40.8019 31.5033C41.0567 31.6732 41.2501 31.9205 41.3534 32.2088C41.4568 32.4971 41.4912 33.4859 41.4023 33.779C41.3135 34.072 41.1326 35.1589 40.8865 35.3413C40.6405 35.5236 40.3423 35.6219 40.036 35.6216H40.0391Z" fill="#3A3A3B"/>
<path d="M22.8235 51.2628C22.6018 51.2631 22.3832 51.2116 22.1849 51.1126C21.9866 51.0135 21.8142 50.8695 21.6813 50.6921C20.3027 49.3184 20.3797 47.3437 20.9728 46.6706L25.5899 40.9205C25.6535 40.8729 25.7263 40.8391 25.8036 40.8213C25.881 40.8034 25.9613 40.8019 26.0393 40.8168C26.1173 40.8318 26.1913 40.8628 26.2566 40.908C26.3219 40.9532 26.3771 41.0115 26.4186 41.0792C26.5387 41.2748 27.6726 43.5394 27.812 43.8044C28.2156 44.5707 28.2741 45.0451 27.6826 45.7838C27.0665 46.5539 23.6776 50.9779 23.6776 50.9779C23.4758 51.2074 23.1208 51.2628 22.8235 51.2628Z" fill="#3A3A3B"/>
<path d="M30.6574 20.0257C32.2329 20.0257 33.5101 18.7485 33.5101 17.173C33.5101 15.5975 32.2329 14.3203 30.6574 14.3203C29.0819 14.3203 27.8047 15.5975 27.8047 17.173C27.8047 18.7485 29.0819 20.0257 30.6574 20.0257Z" fill="#3A3A3B" stroke="#3A3A3B" stroke-width="2" stroke-linecap="round" stroke-linejoin="round"/>
</g>
<defs>
<clipPath id="clip0_1_5398">
<rect width="39.4324" height="39.4324" fill="white" transform="translate(11 13)"/>
</clipPath>
</defs>
</svg>
