<svg width="261" height="48" viewBox="0 0 261 48" fill="none" xmlns="http://www.w3.org/2000/svg">
<path fill-rule="evenodd" clip-rule="evenodd" d="M24.9829 12.2721C23.239 12.2721 21.8266 10.8501 21.8266 9.09506C21.8266 7.34006 23.239 5.91694 24.9829 5.91694C26.7246 5.91694 28.1382 7.34006 28.1382 9.09506C28.1382 10.8501 26.7246 12.2721 24.9818 12.2721H24.9829ZM24.9829 2.18081C21.1806 2.18081 18.0987 5.28244 18.0987 9.11081C18.096 10.6204 18.5867 12.0897 19.4965 13.2958L19.9542 13.9337L24.9818 20.0391L30.4682 13.2947C31.3775 12.0884 31.8679 10.6192 31.8649 9.10969C31.8649 5.28244 28.783 2.17969 24.9818 2.17969L24.9829 2.18081ZM27.6095 34.3783V22.7492H22.5108V28.2111L17.4155 22.0472L3.22656 39.2102L7.94645 43.1657L17.4155 31.7132L26.8846 43.1657L31.6034 39.2102L27.6095 34.3783Z" fill="#0468FF"/>
<path fill-rule="evenodd" clip-rule="evenodd" d="M58.8784 22.7321H54.3569V38.5834H45.4188V22.7332H40.8984V42.7954H57.5483V46.8206H61.6448V38.5856H58.8784V22.731V22.7321ZM69.3283 36.2389V22.7321H64.8079V42.7942H69.3283L78.7973 29.2875V42.7942H83.3188V22.7321H78.7985L69.3294 36.2389H69.3283ZM122.28 22.7321V30.615H113.05V22.7321H108.528V42.7942H113.05V34.854H122.28V42.7942H126.774V22.7321H122.28ZM99.6519 34.323C99.6519 35.898 99.2089 37.1299 98.3364 37.986C97.4526 38.8522 96.1698 39.291 94.5239 39.291C92.4644 39.291 91.3304 38.3572 91.3304 36.6596C91.3304 34.89 92.8139 33.8336 95.2972 33.8336H99.6508V34.323H99.6519ZM95.8778 22.3496C93.515 22.3496 91.4803 22.9864 89.9923 24.1901C88.6001 25.3151 87.7761 26.889 87.6645 28.6226H92.1217C92.3246 27.6911 93.3132 26.2399 95.8778 26.2399C98.2405 26.2399 99.6508 27.6596 99.6508 30.039V30.138H95.1034C92.4114 30.138 90.3316 30.7511 88.9214 31.9605C87.5709 33.1192 86.8867 34.7651 86.8867 36.8542C86.8867 38.6554 87.5901 40.272 88.8707 41.4049C90.1805 42.567 92.0022 43.1812 94.1373 43.1812C97.4808 43.1812 99.3002 41.5387 99.9258 40.8345L100.236 42.5535L100.279 42.792H104.096V30.039C104.096 25.296 100.946 22.3496 95.8778 22.3496Z" fill="#152242"/>
</svg>
