<svg width="29" height="42" viewBox="0 0 29 42" fill="none" xmlns="http://www.w3.org/2000/svg">
<path fill-rule="evenodd" clip-rule="evenodd" d="M21.9829 10.2721C20.239 10.2721 18.8266 8.85006 18.8266 7.09506C18.8266 5.34006 20.239 3.91694 21.9829 3.91694C23.7246 3.91694 25.1382 5.34006 25.1382 7.09506C25.1382 8.85006 23.7246 10.2721 21.9818 10.2721H21.9829ZM21.9829 0.180813C18.1806 0.180813 15.0987 3.28244 15.0987 7.11081C15.096 8.62043 15.5867 10.0897 16.4965 11.2958L16.9542 11.9337L21.9818 18.0391L27.4682 11.2947C28.3775 10.0884 28.8679 8.61916 28.8649 7.10969C28.8649 3.28244 25.783 0.179688 21.9818 0.179688L21.9829 0.180813ZM24.6095 32.3783V20.7492H19.5108V26.2111L14.4155 20.0472L0.226562 37.2102L4.94645 41.1657L14.4155 29.7132L23.8846 41.1657L28.6034 37.2102L24.6095 32.3783Z" fill="#0468FF"/>
</svg>
