<svg width="60" height="60" viewBox="0 0 60 60" fill="none" xmlns="http://www.w3.org/2000/svg">
<rect x="59.5" y="0.5" width="59" height="59" rx="29.5" transform="rotate(90 59.5 0.5)" fill="white"/>
<path d="M49.5461 15.4928L39.6933 9.80434L30.4636 17.6472L23.8439 23.1249L26.0057 28.003L14.0923 47.2606L23.945 52.9491L45.4398 33.6228L38.491 29.6109L42.4425 24.5632L45.6835 26.4344L49.5461 15.4928Z" fill="#3A3A3B"/>
<path d="M39.6932 9.80339L25.4334 14.7421L28.6226 16.5834L15.495 24.1117L24.4662 29.2913L14.0922 47.2596L35.587 27.9333L28.6382 23.9214L32.5896 18.8737L35.8306 20.7449L39.6932 9.80339Z" fill="#124BF6"/>
<rect x="59.5" y="0.5" width="59" height="59" rx="29.5" transform="rotate(90 59.5 0.5)" stroke="#DADADB"/>
</svg>
