<svg width="40" height="40" viewBox="0 0 40 40" fill="none" xmlns="http://www.w3.org/2000/svg">
<path fill-rule="evenodd" clip-rule="evenodd" d="M30.4164 28.787L21.2498 37.9537L12.0831 28.787C7.02048 23.7244 7.02048 15.5163 12.0831 10.4537C17.1457 5.39109 25.3538 5.39109 30.4164 10.4537C35.479 15.5163 35.479 23.7244 30.4164 28.787ZM21.9588 23.6666C23.7997 23.6666 25.2921 22.1742 25.2921 20.3333C25.2921 18.4923 23.7997 16.9999 21.9588 16.9999C20.1178 16.9999 18.6254 18.4923 18.6254 20.3333C18.6254 22.1742 20.1178 23.6666 21.9588 23.6666Z" fill="#3A3A3B"/>
<mask id="path-2-inside-1_1_1258" fill="white">
<path fill-rule="evenodd" clip-rule="evenodd" d="M29.1694 27.5014L20.0027 36.6681L10.836 27.5014C5.77341 22.4388 5.77341 14.2307 10.836 9.16805C15.8986 4.10544 24.1067 4.10544 29.1693 9.16805C34.232 14.2307 34.232 22.4388 29.1694 27.5014ZM19.9974 21.6667C21.8383 21.6667 23.3307 20.1743 23.3307 18.3333C23.3307 16.4924 21.8383 15 19.9974 15C18.1564 15 16.6641 16.4924 16.6641 18.3333C16.6641 20.1743 18.1564 21.6667 19.9974 21.6667Z"/>
</mask>
<path fill-rule="evenodd" clip-rule="evenodd" d="M29.1694 27.5014L20.0027 36.6681L10.836 27.5014C5.77341 22.4388 5.77341 14.2307 10.836 9.16805C15.8986 4.10544 24.1067 4.10544 29.1693 9.16805C34.232 14.2307 34.232 22.4388 29.1694 27.5014ZM19.9974 21.6667C21.8383 21.6667 23.3307 20.1743 23.3307 18.3333C23.3307 16.4924 21.8383 15 19.9974 15C18.1564 15 16.6641 16.4924 16.6641 18.3333C16.6641 20.1743 18.1564 21.6667 19.9974 21.6667Z" fill="#F86247"/>
<path d="M20.0027 36.6681L19.2956 37.3752C19.4831 37.5627 19.7375 37.6681 20.0027 37.6681C20.2679 37.6681 20.5223 37.5627 20.7098 37.3752L20.0027 36.6681ZM29.1694 27.5014L29.8765 28.2085L29.1694 27.5014ZM10.836 27.5014L11.5431 26.7943H11.5431L10.836 27.5014ZM10.836 9.16805L10.1289 8.46094L10.1289 8.46094L10.836 9.16805ZM29.1693 9.16805L29.8765 8.46094L29.1693 9.16805ZM20.7098 37.3752L29.8765 28.2085L28.4622 26.7943L19.2956 35.9609L20.7098 37.3752ZM10.1289 28.2085L19.2956 37.3752L20.7098 35.9609L11.5431 26.7943L10.1289 28.2085ZM10.1289 8.46094C4.67578 13.9141 4.67578 22.7554 10.1289 28.2085L11.5431 26.7943C6.87104 22.1222 6.87104 14.5472 11.5431 9.87516L10.1289 8.46094ZM29.8765 8.46094C24.4233 3.00781 15.582 3.00781 10.1289 8.46094L11.5431 9.87516C16.2152 5.20307 23.7902 5.20307 28.4622 9.87516L29.8765 8.46094ZM29.8765 28.2085C35.3296 22.7554 35.3296 13.9141 29.8765 8.46094L28.4622 9.87516C33.1343 14.5472 33.1343 22.1222 28.4622 26.7943L29.8765 28.2085ZM22.3307 18.3333C22.3307 19.622 21.2861 20.6667 19.9974 20.6667V22.6667C22.3906 22.6667 24.3307 20.7266 24.3307 18.3333H22.3307ZM19.9974 16C21.2861 16 22.3307 17.0447 22.3307 18.3333H24.3307C24.3307 15.9401 22.3906 14 19.9974 14V16ZM17.6641 18.3333C17.6641 17.0447 18.7087 16 19.9974 16V14C17.6042 14 15.6641 15.9401 15.6641 18.3333H17.6641ZM19.9974 20.6667C18.7087 20.6667 17.6641 19.622 17.6641 18.3333H15.6641C15.6641 20.7266 17.6042 22.6667 19.9974 22.6667V20.6667Z" fill="#3A3A3B" mask="url(#path-2-inside-1_1_1258)"/>
</svg>
